<?xml version="1.0" encoding="UTF-8"?>
<!DOCTYPE svg PUBLIC "-//W3C//DTD SVG 1.1//EN" "http://www.w3.org/Graphics/SVG/1.1/DTD/svg11.dtd">
<!-- Creator: CorelDRAW X7 -->
<svg xmlns="http://www.w3.org/2000/svg" xml:space="preserve" width="8.5in" height="11in" version="1.1" style="shape-rendering:geometricPrecision; text-rendering:geometricPrecision; image-rendering:optimizeQuality; fill-rule:evenodd; clip-rule:evenodd"
viewBox="0 0 8500 11000"
 xmlns:xlink="http://www.w3.org/1999/xlink">
 <defs>
  <style type="text/css">
   <![CDATA[
    .fil8 {fill:#007575}
    .fil5 {fill:teal}
    .fil2 {fill:#009C9C}
    .fil6 {fill:#00A8A8}
    .fil4 {fill:#00BABA}
    .fil3 {fill:#00E3E3}
    .fil7 {fill:#024F4F}
    .fil0 {fill:#36FFFF}
    .fil1 {fill:#87FFFF}
   ]]>
  </style>
 </defs>
 <g id="Layer_x0020_1">
  <metadata id="CorelCorpID_0Corel-Layer"/>
  <g id="_2040828463824">
   <polygon class="fil0" points="5257,3247 3421,1183 3720,2939 "/>
   <polygon class="fil1" points="3830,3116 5129,4899 5378,3426 "/>
   <polygon class="fil2" points="3365,3249 3573,2983 3404,1992 "/>
   <polygon class="fil3" points="1916,5364 5040,5035 3652,3130 "/>
   <polygon class="fil4" points="3363,8363 5036,5189 1865,5523 "/>
   <polygon class="fil5" points="1822,8097 3218,8415 1822,5766 "/>
   <polygon class="fil3" points="5261,5034 6629,5343 5508,3575 "/>
   <polygon class="fil4" points="5312,5202 6716,7851 6716,5519 "/>
   <polygon class="fil6" points="6672,8094 5170,5261 3497,8435 "/>
   <polygon class="fil7" points="3972,9501 3318,8595 2151,8329 "/>
   <polygon class="fil8" points="3502,8589 4288,9680 6480,8268 "/>
  </g>
 </g>
</svg>
